<mxfile host="app.diagrams.net" modified="2021-03-10T05:15:18.089Z" agent="5.0 (Windows NT 10.0; Win64; x64) AppleWebKit/537.36 (KHTML, like Gecko) Chrome/88.0.4324.190 Safari/537.36" etag="FsD7Ehv8TEU1O1QdDaB4" version="14.4.4" type="github">
  <diagram id="JIANmT2nnOIBF4YDTT5s" name="第 1 页">
    <mxGraphModel dx="2031" dy="1146" grid="1" gridSize="10" guides="1" tooltips="1" connect="1" arrows="1" fold="1" page="1" pageScale="1" pageWidth="827" pageHeight="1169" math="0" shadow="0">
      <root>
        <mxCell id="0" />
        <mxCell id="1" parent="0" />
        <mxCell id="ffXGzlUsW7iirdP9C00W-28" value="" style="rounded=1;whiteSpace=wrap;html=1;fillColor=none;" vertex="1" parent="1">
          <mxGeometry x="64" y="250" width="700" height="250" as="geometry" />
        </mxCell>
        <mxCell id="ffXGzlUsW7iirdP9C00W-2" value="" style="rounded=1;whiteSpace=wrap;html=1;" vertex="1" parent="1">
          <mxGeometry x="144" y="270" width="80" height="210" as="geometry" />
        </mxCell>
        <mxCell id="ffXGzlUsW7iirdP9C00W-6" value="" style="edgeStyle=orthogonalEdgeStyle;rounded=0;orthogonalLoop=1;jettySize=auto;html=1;" edge="1" parent="1" source="ffXGzlUsW7iirdP9C00W-1" target="ffXGzlUsW7iirdP9C00W-4">
          <mxGeometry relative="1" as="geometry" />
        </mxCell>
        <mxCell id="ffXGzlUsW7iirdP9C00W-1" value="LSTM" style="ellipse;whiteSpace=wrap;html=1;aspect=fixed;" vertex="1" parent="1">
          <mxGeometry x="164" y="290" width="40" height="40" as="geometry" />
        </mxCell>
        <mxCell id="ffXGzlUsW7iirdP9C00W-3" value="&lt;span&gt;LSTM&lt;/span&gt;" style="ellipse;whiteSpace=wrap;html=1;aspect=fixed;" vertex="1" parent="1">
          <mxGeometry x="164" y="430" width="40" height="40" as="geometry" />
        </mxCell>
        <mxCell id="ffXGzlUsW7iirdP9C00W-4" value="&lt;span&gt;LSTM&lt;/span&gt;" style="ellipse;whiteSpace=wrap;html=1;aspect=fixed;" vertex="1" parent="1">
          <mxGeometry x="164" y="350" width="40" height="40" as="geometry" />
        </mxCell>
        <mxCell id="ffXGzlUsW7iirdP9C00W-5" value="" style="endArrow=none;dashed=1;html=1;dashPattern=1 3;strokeWidth=2;" edge="1" parent="1">
          <mxGeometry width="50" height="50" relative="1" as="geometry">
            <mxPoint x="183.71" y="420" as="sourcePoint" />
            <mxPoint x="184" y="400" as="targetPoint" />
          </mxGeometry>
        </mxCell>
        <mxCell id="ffXGzlUsW7iirdP9C00W-7" value="" style="rounded=1;whiteSpace=wrap;html=1;" vertex="1" parent="1">
          <mxGeometry x="264" y="270" width="80" height="210" as="geometry" />
        </mxCell>
        <mxCell id="ffXGzlUsW7iirdP9C00W-8" value="" style="edgeStyle=orthogonalEdgeStyle;rounded=0;orthogonalLoop=1;jettySize=auto;html=1;" edge="1" parent="1" source="ffXGzlUsW7iirdP9C00W-9" target="ffXGzlUsW7iirdP9C00W-11">
          <mxGeometry relative="1" as="geometry" />
        </mxCell>
        <mxCell id="ffXGzlUsW7iirdP9C00W-9" value="LSTM" style="ellipse;whiteSpace=wrap;html=1;aspect=fixed;" vertex="1" parent="1">
          <mxGeometry x="284" y="290" width="40" height="40" as="geometry" />
        </mxCell>
        <mxCell id="ffXGzlUsW7iirdP9C00W-10" value="&lt;span&gt;LSTM&lt;/span&gt;" style="ellipse;whiteSpace=wrap;html=1;aspect=fixed;" vertex="1" parent="1">
          <mxGeometry x="284" y="430" width="40" height="40" as="geometry" />
        </mxCell>
        <mxCell id="ffXGzlUsW7iirdP9C00W-11" value="&lt;span&gt;LSTM&lt;/span&gt;" style="ellipse;whiteSpace=wrap;html=1;aspect=fixed;" vertex="1" parent="1">
          <mxGeometry x="284" y="350" width="40" height="40" as="geometry" />
        </mxCell>
        <mxCell id="ffXGzlUsW7iirdP9C00W-12" value="" style="endArrow=none;dashed=1;html=1;dashPattern=1 3;strokeWidth=2;" edge="1" parent="1">
          <mxGeometry width="50" height="50" relative="1" as="geometry">
            <mxPoint x="303.71000000000004" y="420" as="sourcePoint" />
            <mxPoint x="304" y="400" as="targetPoint" />
          </mxGeometry>
        </mxCell>
        <mxCell id="ffXGzlUsW7iirdP9C00W-13" value="" style="edgeStyle=orthogonalEdgeStyle;rounded=0;orthogonalLoop=1;jettySize=auto;html=1;" edge="1" parent="1" source="ffXGzlUsW7iirdP9C00W-1" target="ffXGzlUsW7iirdP9C00W-9">
          <mxGeometry relative="1" as="geometry" />
        </mxCell>
        <mxCell id="ffXGzlUsW7iirdP9C00W-14" value="" style="edgeStyle=orthogonalEdgeStyle;rounded=0;orthogonalLoop=1;jettySize=auto;html=1;" edge="1" parent="1" source="ffXGzlUsW7iirdP9C00W-4" target="ffXGzlUsW7iirdP9C00W-11">
          <mxGeometry relative="1" as="geometry" />
        </mxCell>
        <mxCell id="ffXGzlUsW7iirdP9C00W-15" value="" style="edgeStyle=orthogonalEdgeStyle;rounded=0;orthogonalLoop=1;jettySize=auto;html=1;" edge="1" parent="1" source="ffXGzlUsW7iirdP9C00W-3" target="ffXGzlUsW7iirdP9C00W-10">
          <mxGeometry relative="1" as="geometry" />
        </mxCell>
        <mxCell id="ffXGzlUsW7iirdP9C00W-22" value="" style="rounded=1;whiteSpace=wrap;html=1;" vertex="1" parent="1">
          <mxGeometry x="388" y="270" width="80" height="210" as="geometry" />
        </mxCell>
        <mxCell id="ffXGzlUsW7iirdP9C00W-23" value="" style="rounded=1;whiteSpace=wrap;html=1;" vertex="1" parent="1">
          <mxGeometry x="621" y="270" width="80" height="210" as="geometry" />
        </mxCell>
        <mxCell id="ffXGzlUsW7iirdP9C00W-24" value="" style="endArrow=classic;html=1;entryX=0.5;entryY=0;entryDx=0;entryDy=0;edgeStyle=orthogonalEdgeStyle;" edge="1" parent="1" target="ffXGzlUsW7iirdP9C00W-30">
          <mxGeometry width="50" height="50" relative="1" as="geometry">
            <mxPoint x="184" y="240" as="sourcePoint" />
            <mxPoint x="524" y="370" as="targetPoint" />
            <Array as="points">
              <mxPoint x="134" y="240" />
              <mxPoint x="134" y="550" />
              <mxPoint x="194" y="550" />
            </Array>
          </mxGeometry>
        </mxCell>
        <mxCell id="ffXGzlUsW7iirdP9C00W-25" value="" style="endArrow=classic;html=1;entryX=0.5;entryY=0;entryDx=0;entryDy=0;" edge="1" parent="1">
          <mxGeometry width="50" height="50" relative="1" as="geometry">
            <mxPoint x="304" y="150" as="sourcePoint" />
            <mxPoint x="303.58" y="270" as="targetPoint" />
          </mxGeometry>
        </mxCell>
        <mxCell id="ffXGzlUsW7iirdP9C00W-26" value="" style="endArrow=classic;html=1;entryX=0.5;entryY=0;entryDx=0;entryDy=0;" edge="1" parent="1">
          <mxGeometry width="50" height="50" relative="1" as="geometry">
            <mxPoint x="427" y="150" as="sourcePoint" />
            <mxPoint x="427" y="270" as="targetPoint" />
          </mxGeometry>
        </mxCell>
        <mxCell id="ffXGzlUsW7iirdP9C00W-27" value="" style="endArrow=classic;html=1;entryX=0.5;entryY=0;entryDx=0;entryDy=0;" edge="1" parent="1">
          <mxGeometry width="50" height="50" relative="1" as="geometry">
            <mxPoint x="661" y="150" as="sourcePoint" />
            <mxPoint x="660.5799999999999" y="270" as="targetPoint" />
          </mxGeometry>
        </mxCell>
        <mxCell id="ffXGzlUsW7iirdP9C00W-29" value="" style="rounded=1;whiteSpace=wrap;html=1;fillColor=none;" vertex="1" parent="1">
          <mxGeometry x="64" y="570" width="700" height="250" as="geometry" />
        </mxCell>
        <mxCell id="ffXGzlUsW7iirdP9C00W-30" value="" style="rounded=1;whiteSpace=wrap;html=1;" vertex="1" parent="1">
          <mxGeometry x="154" y="590" width="80" height="210" as="geometry" />
        </mxCell>
        <mxCell id="ffXGzlUsW7iirdP9C00W-31" value="" style="edgeStyle=orthogonalEdgeStyle;rounded=0;orthogonalLoop=1;jettySize=auto;html=1;" edge="1" parent="1" source="ffXGzlUsW7iirdP9C00W-32" target="ffXGzlUsW7iirdP9C00W-34">
          <mxGeometry relative="1" as="geometry" />
        </mxCell>
        <mxCell id="ffXGzlUsW7iirdP9C00W-32" value="LSTM" style="ellipse;whiteSpace=wrap;html=1;aspect=fixed;" vertex="1" parent="1">
          <mxGeometry x="174" y="610" width="40" height="40" as="geometry" />
        </mxCell>
        <mxCell id="ffXGzlUsW7iirdP9C00W-33" value="&lt;span&gt;LSTM&lt;/span&gt;" style="ellipse;whiteSpace=wrap;html=1;aspect=fixed;" vertex="1" parent="1">
          <mxGeometry x="174" y="750" width="40" height="40" as="geometry" />
        </mxCell>
        <mxCell id="ffXGzlUsW7iirdP9C00W-34" value="&lt;span&gt;LSTM&lt;/span&gt;" style="ellipse;whiteSpace=wrap;html=1;aspect=fixed;" vertex="1" parent="1">
          <mxGeometry x="174" y="670" width="40" height="40" as="geometry" />
        </mxCell>
        <mxCell id="ffXGzlUsW7iirdP9C00W-35" value="" style="endArrow=none;dashed=1;html=1;dashPattern=1 3;strokeWidth=2;" edge="1" parent="1">
          <mxGeometry width="50" height="50" relative="1" as="geometry">
            <mxPoint x="193.71000000000004" y="740" as="sourcePoint" />
            <mxPoint x="194" y="720" as="targetPoint" />
          </mxGeometry>
        </mxCell>
        <mxCell id="ffXGzlUsW7iirdP9C00W-36" value="" style="rounded=1;whiteSpace=wrap;html=1;" vertex="1" parent="1">
          <mxGeometry x="274" y="590" width="80" height="210" as="geometry" />
        </mxCell>
        <mxCell id="ffXGzlUsW7iirdP9C00W-37" value="" style="edgeStyle=orthogonalEdgeStyle;rounded=0;orthogonalLoop=1;jettySize=auto;html=1;" edge="1" parent="1" source="ffXGzlUsW7iirdP9C00W-38" target="ffXGzlUsW7iirdP9C00W-40">
          <mxGeometry relative="1" as="geometry" />
        </mxCell>
        <mxCell id="ffXGzlUsW7iirdP9C00W-76" value="" style="edgeStyle=orthogonalEdgeStyle;rounded=0;orthogonalLoop=1;jettySize=auto;html=1;" edge="1" parent="1" source="ffXGzlUsW7iirdP9C00W-38" target="ffXGzlUsW7iirdP9C00W-32">
          <mxGeometry relative="1" as="geometry" />
        </mxCell>
        <mxCell id="ffXGzlUsW7iirdP9C00W-38" value="LSTM" style="ellipse;whiteSpace=wrap;html=1;aspect=fixed;" vertex="1" parent="1">
          <mxGeometry x="294" y="610" width="40" height="40" as="geometry" />
        </mxCell>
        <mxCell id="ffXGzlUsW7iirdP9C00W-39" value="&lt;span&gt;LSTM&lt;/span&gt;" style="ellipse;whiteSpace=wrap;html=1;aspect=fixed;" vertex="1" parent="1">
          <mxGeometry x="294" y="750" width="40" height="40" as="geometry" />
        </mxCell>
        <mxCell id="ffXGzlUsW7iirdP9C00W-40" value="&lt;span&gt;LSTM&lt;/span&gt;" style="ellipse;whiteSpace=wrap;html=1;aspect=fixed;" vertex="1" parent="1">
          <mxGeometry x="294" y="670" width="40" height="40" as="geometry" />
        </mxCell>
        <mxCell id="ffXGzlUsW7iirdP9C00W-41" value="" style="endArrow=none;dashed=1;html=1;dashPattern=1 3;strokeWidth=2;" edge="1" parent="1">
          <mxGeometry width="50" height="50" relative="1" as="geometry">
            <mxPoint x="313.71000000000004" y="740" as="sourcePoint" />
            <mxPoint x="314" y="720" as="targetPoint" />
          </mxGeometry>
        </mxCell>
        <mxCell id="ffXGzlUsW7iirdP9C00W-44" value="" style="edgeStyle=orthogonalEdgeStyle;rounded=0;orthogonalLoop=1;jettySize=auto;html=1;" edge="1" parent="1" source="ffXGzlUsW7iirdP9C00W-39" target="ffXGzlUsW7iirdP9C00W-33">
          <mxGeometry relative="1" as="geometry" />
        </mxCell>
        <mxCell id="ffXGzlUsW7iirdP9C00W-45" value="" style="rounded=1;whiteSpace=wrap;html=1;" vertex="1" parent="1">
          <mxGeometry x="396" y="590" width="80" height="210" as="geometry" />
        </mxCell>
        <mxCell id="ffXGzlUsW7iirdP9C00W-46" value="" style="rounded=1;whiteSpace=wrap;html=1;" vertex="1" parent="1">
          <mxGeometry x="631" y="590" width="80" height="210" as="geometry" />
        </mxCell>
        <mxCell id="ffXGzlUsW7iirdP9C00W-51" value="LSTM" style="ellipse;whiteSpace=wrap;html=1;aspect=fixed;" vertex="1" parent="1">
          <mxGeometry x="408" y="290" width="40" height="40" as="geometry" />
        </mxCell>
        <mxCell id="ffXGzlUsW7iirdP9C00W-52" value="&lt;span&gt;LSTM&lt;/span&gt;" style="ellipse;whiteSpace=wrap;html=1;aspect=fixed;" vertex="1" parent="1">
          <mxGeometry x="408" y="430" width="40" height="40" as="geometry" />
        </mxCell>
        <mxCell id="ffXGzlUsW7iirdP9C00W-53" value="&lt;span&gt;LSTM&lt;/span&gt;" style="ellipse;whiteSpace=wrap;html=1;aspect=fixed;" vertex="1" parent="1">
          <mxGeometry x="408" y="350" width="40" height="40" as="geometry" />
        </mxCell>
        <mxCell id="ffXGzlUsW7iirdP9C00W-54" value="" style="endArrow=classic;html=1;entryX=0.5;entryY=0;entryDx=0;entryDy=0;" edge="1" parent="1">
          <mxGeometry width="50" height="50" relative="1" as="geometry">
            <mxPoint x="183" y="150" as="sourcePoint" />
            <mxPoint x="183.40999999999994" y="270" as="targetPoint" />
          </mxGeometry>
        </mxCell>
        <mxCell id="ffXGzlUsW7iirdP9C00W-55" value="" style="endArrow=classic;html=1;exitX=0.5;exitY=1;exitDx=0;exitDy=0;" edge="1" parent="1" source="ffXGzlUsW7iirdP9C00W-30">
          <mxGeometry width="50" height="50" relative="1" as="geometry">
            <mxPoint x="594" y="690" as="sourcePoint" />
            <mxPoint x="194" y="868" as="targetPoint" />
          </mxGeometry>
        </mxCell>
        <mxCell id="ffXGzlUsW7iirdP9C00W-57" value="" style="endArrow=classic;html=1;exitX=0.5;exitY=1;exitDx=0;exitDy=0;edgeStyle=orthogonalEdgeStyle;" edge="1" parent="1" source="ffXGzlUsW7iirdP9C00W-2">
          <mxGeometry width="50" height="50" relative="1" as="geometry">
            <mxPoint x="594" y="690" as="sourcePoint" />
            <mxPoint x="244" y="870" as="targetPoint" />
            <Array as="points">
              <mxPoint x="184" y="530" />
              <mxPoint x="244" y="530" />
            </Array>
          </mxGeometry>
        </mxCell>
        <mxCell id="ffXGzlUsW7iirdP9C00W-78" style="edgeStyle=orthogonalEdgeStyle;rounded=0;orthogonalLoop=1;jettySize=auto;html=1;exitX=0.5;exitY=1;exitDx=0;exitDy=0;" edge="1" parent="1" source="ffXGzlUsW7iirdP9C00W-58">
          <mxGeometry relative="1" as="geometry">
            <mxPoint x="219" y="980" as="targetPoint" />
          </mxGeometry>
        </mxCell>
        <mxCell id="ffXGzlUsW7iirdP9C00W-58" value="合并" style="rounded=0;whiteSpace=wrap;html=1;fillColor=none;" vertex="1" parent="1">
          <mxGeometry x="174" y="869" width="90" height="40" as="geometry" />
        </mxCell>
        <mxCell id="ffXGzlUsW7iirdP9C00W-59" value="" style="endArrow=classic;html=1;entryX=0.5;entryY=0;entryDx=0;entryDy=0;edgeStyle=orthogonalEdgeStyle;" edge="1" parent="1">
          <mxGeometry width="50" height="50" relative="1" as="geometry">
            <mxPoint x="304" y="240" as="sourcePoint" />
            <mxPoint x="314" y="590" as="targetPoint" />
            <Array as="points">
              <mxPoint x="254" y="240" />
              <mxPoint x="254" y="550" />
              <mxPoint x="314" y="550" />
            </Array>
          </mxGeometry>
        </mxCell>
        <mxCell id="ffXGzlUsW7iirdP9C00W-62" value="" style="endArrow=classic;html=1;entryX=0.25;entryY=0;entryDx=0;entryDy=0;" edge="1" parent="1">
          <mxGeometry width="50" height="50" relative="1" as="geometry">
            <mxPoint x="318" y="800" as="sourcePoint" />
            <mxPoint x="318" y="870" as="targetPoint" />
          </mxGeometry>
        </mxCell>
        <mxCell id="ffXGzlUsW7iirdP9C00W-63" value="" style="endArrow=classic;html=1;exitX=0.5;exitY=1;exitDx=0;exitDy=0;edgeStyle=orthogonalEdgeStyle;" edge="1" parent="1">
          <mxGeometry width="50" height="50" relative="1" as="geometry">
            <mxPoint x="308" y="480" as="sourcePoint" />
            <mxPoint x="368" y="870" as="targetPoint" />
            <Array as="points">
              <mxPoint x="308" y="530" />
              <mxPoint x="368" y="530" />
            </Array>
          </mxGeometry>
        </mxCell>
        <mxCell id="ffXGzlUsW7iirdP9C00W-79" style="edgeStyle=orthogonalEdgeStyle;rounded=0;orthogonalLoop=1;jettySize=auto;html=1;exitX=0.5;exitY=1;exitDx=0;exitDy=0;" edge="1" parent="1" source="ffXGzlUsW7iirdP9C00W-64">
          <mxGeometry relative="1" as="geometry">
            <mxPoint x="339" y="980" as="targetPoint" />
          </mxGeometry>
        </mxCell>
        <mxCell id="ffXGzlUsW7iirdP9C00W-64" value="合并" style="rounded=0;whiteSpace=wrap;html=1;fillColor=none;" vertex="1" parent="1">
          <mxGeometry x="294" y="869" width="90" height="40" as="geometry" />
        </mxCell>
        <mxCell id="ffXGzlUsW7iirdP9C00W-65" value="" style="endArrow=classic;html=1;entryX=0.5;entryY=0;entryDx=0;entryDy=0;edgeStyle=orthogonalEdgeStyle;" edge="1" parent="1">
          <mxGeometry width="50" height="50" relative="1" as="geometry">
            <mxPoint x="426.96999999999997" y="240" as="sourcePoint" />
            <mxPoint x="436.96999999999997" y="589.9999999999995" as="targetPoint" />
            <Array as="points">
              <mxPoint x="376.96999999999997" y="240" />
              <mxPoint x="376.96999999999997" y="550" />
              <mxPoint x="436.96999999999997" y="550" />
            </Array>
          </mxGeometry>
        </mxCell>
        <mxCell id="ffXGzlUsW7iirdP9C00W-67" value="" style="endArrow=classic;html=1;exitX=0.5;exitY=1;exitDx=0;exitDy=0;edgeStyle=orthogonalEdgeStyle;" edge="1" parent="1">
          <mxGeometry width="50" height="50" relative="1" as="geometry">
            <mxPoint x="428" y="480.0000000000002" as="sourcePoint" />
            <mxPoint x="488" y="870" as="targetPoint" />
            <Array as="points">
              <mxPoint x="428" y="530" />
              <mxPoint x="488" y="530" />
            </Array>
          </mxGeometry>
        </mxCell>
        <mxCell id="ffXGzlUsW7iirdP9C00W-68" value="" style="endArrow=classic;html=1;entryX=0.25;entryY=0;entryDx=0;entryDy=0;" edge="1" parent="1">
          <mxGeometry width="50" height="50" relative="1" as="geometry">
            <mxPoint x="435.65999999999997" y="800" as="sourcePoint" />
            <mxPoint x="435.65999999999997" y="870" as="targetPoint" />
          </mxGeometry>
        </mxCell>
        <mxCell id="ffXGzlUsW7iirdP9C00W-80" style="edgeStyle=orthogonalEdgeStyle;rounded=0;orthogonalLoop=1;jettySize=auto;html=1;exitX=0.5;exitY=1;exitDx=0;exitDy=0;" edge="1" parent="1" source="ffXGzlUsW7iirdP9C00W-69">
          <mxGeometry relative="1" as="geometry">
            <mxPoint x="459" y="980" as="targetPoint" />
          </mxGeometry>
        </mxCell>
        <mxCell id="ffXGzlUsW7iirdP9C00W-69" value="合并" style="rounded=0;whiteSpace=wrap;html=1;fillColor=none;" vertex="1" parent="1">
          <mxGeometry x="414" y="869" width="90" height="40" as="geometry" />
        </mxCell>
        <mxCell id="ffXGzlUsW7iirdP9C00W-70" value="" style="endArrow=classic;html=1;entryX=0.5;entryY=0;entryDx=0;entryDy=0;edgeStyle=orthogonalEdgeStyle;" edge="1" parent="1">
          <mxGeometry width="50" height="50" relative="1" as="geometry">
            <mxPoint x="660.4899999999998" y="240" as="sourcePoint" />
            <mxPoint x="670.4899999999998" y="589.9999999999995" as="targetPoint" />
            <Array as="points">
              <mxPoint x="610.49" y="240" />
              <mxPoint x="610.49" y="550" />
              <mxPoint x="670.49" y="550" />
            </Array>
          </mxGeometry>
        </mxCell>
        <mxCell id="ffXGzlUsW7iirdP9C00W-71" value="" style="endArrow=classic;html=1;exitX=0.5;exitY=1;exitDx=0;exitDy=0;edgeStyle=orthogonalEdgeStyle;" edge="1" parent="1">
          <mxGeometry width="50" height="50" relative="1" as="geometry">
            <mxPoint x="661.52" y="480" as="sourcePoint" />
            <mxPoint x="721.52" y="870" as="targetPoint" />
            <Array as="points">
              <mxPoint x="661.52" y="530" />
              <mxPoint x="721.52" y="530" />
            </Array>
          </mxGeometry>
        </mxCell>
        <mxCell id="ffXGzlUsW7iirdP9C00W-72" value="" style="endArrow=classic;html=1;entryX=0.25;entryY=0;entryDx=0;entryDy=0;" edge="1" parent="1">
          <mxGeometry width="50" height="50" relative="1" as="geometry">
            <mxPoint x="670.5799999999998" y="800" as="sourcePoint" />
            <mxPoint x="670.5799999999998" y="870" as="targetPoint" />
          </mxGeometry>
        </mxCell>
        <mxCell id="ffXGzlUsW7iirdP9C00W-81" style="edgeStyle=orthogonalEdgeStyle;rounded=0;orthogonalLoop=1;jettySize=auto;html=1;exitX=0.5;exitY=1;exitDx=0;exitDy=0;" edge="1" parent="1" source="ffXGzlUsW7iirdP9C00W-73">
          <mxGeometry relative="1" as="geometry">
            <mxPoint x="695.6666666666667" y="980" as="targetPoint" />
          </mxGeometry>
        </mxCell>
        <mxCell id="ffXGzlUsW7iirdP9C00W-73" value="合并" style="rounded=0;whiteSpace=wrap;html=1;fillColor=none;" vertex="1" parent="1">
          <mxGeometry x="651" y="869" width="90" height="40" as="geometry" />
        </mxCell>
        <mxCell id="ffXGzlUsW7iirdP9C00W-75" value="" style="edgeStyle=orthogonalEdgeStyle;rounded=0;orthogonalLoop=1;jettySize=auto;html=1;" edge="1" parent="1">
          <mxGeometry relative="1" as="geometry">
            <mxPoint x="294" y="690" as="sourcePoint" />
            <mxPoint x="214" y="690" as="targetPoint" />
          </mxGeometry>
        </mxCell>
        <mxCell id="ffXGzlUsW7iirdP9C00W-83" value="" style="endArrow=none;dashed=1;html=1;dashPattern=1 3;strokeWidth=2;" edge="1" parent="1">
          <mxGeometry width="50" height="50" relative="1" as="geometry">
            <mxPoint x="524" y="708.57" as="sourcePoint" />
            <mxPoint x="594" y="708.57" as="targetPoint" />
          </mxGeometry>
        </mxCell>
        <mxCell id="ffXGzlUsW7iirdP9C00W-84" value="" style="endArrow=none;dashed=1;html=1;dashPattern=1 3;strokeWidth=2;" edge="1" parent="1">
          <mxGeometry width="50" height="50" relative="1" as="geometry">
            <mxPoint x="522" y="369.2900000000002" as="sourcePoint" />
            <mxPoint x="592" y="369.2900000000002" as="targetPoint" />
          </mxGeometry>
        </mxCell>
        <mxCell id="ffXGzlUsW7iirdP9C00W-85" value="正向多层&lt;br&gt;LSTM网络" style="text;html=1;align=center;verticalAlign=middle;resizable=0;points=[];autosize=1;" vertex="1" parent="1">
          <mxGeometry x="64" y="355" width="70" height="30" as="geometry" />
        </mxCell>
        <mxCell id="ffXGzlUsW7iirdP9C00W-86" value="反向多层&lt;br&gt;LSTM网络" style="text;html=1;align=center;verticalAlign=middle;resizable=0;points=[];autosize=1;" vertex="1" parent="1">
          <mxGeometry x="74" y="670" width="70" height="30" as="geometry" />
        </mxCell>
        <mxCell id="ffXGzlUsW7iirdP9C00W-91" value="输入" style="text;html=1;align=center;verticalAlign=middle;resizable=0;points=[];autosize=1;" vertex="1" parent="1">
          <mxGeometry x="144" y="210" width="40" height="20" as="geometry" />
        </mxCell>
        <mxCell id="ffXGzlUsW7iirdP9C00W-93" value="输入" style="text;html=1;align=center;verticalAlign=middle;resizable=0;points=[];autosize=1;" vertex="1" parent="1">
          <mxGeometry x="264" y="210" width="40" height="20" as="geometry" />
        </mxCell>
        <mxCell id="ffXGzlUsW7iirdP9C00W-94" value="输入" style="text;html=1;align=center;verticalAlign=middle;resizable=0;points=[];autosize=1;" vertex="1" parent="1">
          <mxGeometry x="388" y="210" width="40" height="20" as="geometry" />
        </mxCell>
        <mxCell id="ffXGzlUsW7iirdP9C00W-95" value="输入" style="text;html=1;align=center;verticalAlign=middle;resizable=0;points=[];autosize=1;" vertex="1" parent="1">
          <mxGeometry x="621" y="210" width="40" height="20" as="geometry" />
        </mxCell>
        <mxCell id="ffXGzlUsW7iirdP9C00W-96" value="输出" style="text;html=1;align=center;verticalAlign=middle;resizable=0;points=[];autosize=1;" vertex="1" parent="1">
          <mxGeometry x="180" y="930" width="40" height="20" as="geometry" />
        </mxCell>
        <mxCell id="ffXGzlUsW7iirdP9C00W-97" value="输出" style="text;html=1;align=center;verticalAlign=middle;resizable=0;points=[];autosize=1;" vertex="1" parent="1">
          <mxGeometry x="300" y="930" width="40" height="20" as="geometry" />
        </mxCell>
        <mxCell id="ffXGzlUsW7iirdP9C00W-98" value="输出" style="text;html=1;align=center;verticalAlign=middle;resizable=0;points=[];autosize=1;" vertex="1" parent="1">
          <mxGeometry x="419" y="930" width="40" height="20" as="geometry" />
        </mxCell>
        <mxCell id="ffXGzlUsW7iirdP9C00W-99" value="输出" style="text;html=1;align=center;verticalAlign=middle;resizable=0;points=[];autosize=1;" vertex="1" parent="1">
          <mxGeometry x="655" y="930" width="40" height="20" as="geometry" />
        </mxCell>
      </root>
    </mxGraphModel>
  </diagram>
</mxfile>
